<?xml version="1.0" encoding="UTF-8"?>
<!DOCTYPE svg PUBLIC "-//W3C//DTD SVG 1.1//EN" "http://www.w3.org/Graphics/SVG/1.1/DTD/svg11.dtd">
<svg version="1.1" xmlns="http://www.w3.org/2000/svg" xmlns:xlink="http://www.w3.org/1999/xlink" x="0" y="0" width="340" height="340" viewBox="0, 0, 340, 340">
  <g id="Layer_1">
    <path d="M95.218,303 C93.432,303 91.783,302.047 90.889,300.501 L16.627,171.874 C15.736,170.328 15.736,168.424 16.627,166.877 L90.889,38.252 C91.783,36.706 93.432,35.754 95.218,35.754 L243.742,35.754 C245.527,35.754 247.176,36.706 248.071,38.252 L322.331,166.877 C323.223,168.424 323.223,170.328 322.331,171.874 L248.071,300.501 C247.176,302.047 245.527,303 243.742,303 L95.218,303" fill="#5B2A7A"/>
    <path d="M132.71,118.195 L112.671,118.195 L112.671,147.559 C112.671,152.802 115.119,154.55 120.361,154.55 L132.71,154.55 L132.71,164.338 L118.963,164.338 C108.476,164.338 102.415,157.346 102.415,146.276 L102.415,94.424 L112.671,94.424 L112.671,108.407 L132.71,108.407 L132.71,118.195" fill="#00A4DB"/>
    <path d="M184.217,164.338 L184.217,132.877 C184.217,122.39 175.36,117.029 166.04,117.029 C154.736,117.029 147.628,126.002 147.628,136.606 C147.628,146.976 155.202,155.715 165.922,155.715 C171.748,155.715 176.526,152.453 180.022,148.025 L180.022,160.144 C175.943,163.172 171.982,165.502 164.874,165.502 C148.794,165.502 137.373,152.221 137.373,135.789 C137.373,119.826 148.328,107.242 166.272,107.242 C183.518,107.242 194.47,117.729 194.47,133.81 L194.47,164.338 L184.217,164.338" fill="#00A4DB"/>
    <path d="M203.797,189.505 L203.797,138.004 C203.797,119.594 215.565,107.242 231.993,107.242 C250.171,107.242 260.891,121.225 260.891,137.772 C260.891,153.384 248.308,165.502 233.975,165.502 C228.38,165.502 223.023,164.338 218.128,161.542 L218.128,150.82 C221.857,153.384 227.566,155.715 232.227,155.715 C243.296,155.715 250.639,148.025 250.639,136.489 C250.639,125.069 242.947,117.029 231.993,117.029 C222.206,117.029 214.05,124.486 214.05,139.867 L214.05,189.505 L203.797,189.505" fill="#00A4DB"/>
    <path d="M132.95,187.233 L113.374,238.618 C111.509,243.629 109.062,244.327 105.45,244.327 C101.838,244.327 99.391,243.629 97.526,238.618 L78.068,187.233 L89.255,187.233 L105.567,230.579 L121.764,187.233 L132.95,187.233" fill="#00A4DB"/>
    <path d="M163.711,234.541 C174.315,234.541 182.007,226.617 182.007,215.198 C182.007,203.781 174.315,195.856 163.711,195.856 C153.108,195.856 145.42,203.781 145.42,215.198 C145.42,226.617 153.108,234.541 163.711,234.541 z M163.711,186.068 C179.21,186.068 192.728,197.954 192.728,215.198 C192.728,232.442 179.21,244.327 163.711,244.327 C148.216,244.327 134.7,232.442 134.7,215.198 C134.7,197.954 148.216,186.068 163.711,186.068" fill="#00A4DB"/>
    <path d="M203.797,161.599 L214.05,161.599 L214.05,243.165 L203.797,243.165 z" fill="#00A4DB"/>
    <path d="M259.149,197.02 L239.107,197.02 L239.107,226.386 C239.107,231.628 241.554,233.376 246.796,233.376 L259.149,233.376 L259.149,243.165 L245.399,243.165 C234.912,243.165 228.853,236.172 228.853,225.104 L228.853,173.25 L239.107,173.25 L239.107,187.233 L259.149,187.233 L259.149,197.02" fill="#00A4DB"/>
  </g>
</svg>
